<?xml version="1.0" standalone="no"?>
<!DOCTYPE svg PUBLIC "-//W3C//DTD SVG 20010904//EN"
 "http://www.w3.org/TR/2001/REC-SVG-20010904/DTD/svg10.dtd">
<svg version="1.0" xmlns="http://www.w3.org/2000/svg"
 width="400.000000pt" height="400.000000pt" viewBox="0 0 400.000000 400.000000"
 preserveAspectRatio="xMidYMid meet">
<metadata>
Created by potrace 1.11, written by Peter Selinger 2001-2013
</metadata>
<g transform="translate(0.000000,400.000000) scale(0.100000,-0.100000)"
fill="#000000" stroke="none">
<path d="M0 2000 l0 -2000 2000 0 2000 0 0 2000 0 2000 -2000 0 -2000 0 0
-2000z m1391 640 c58 -21 94 -59 118 -123 7 -19 11 -201 11 -525 l0 -497 -24
-52 c-32 -68 -78 -97 -179 -113 -67 -10 -102 -9 -195 5 -51 8 -106 49 -131
100 l-26 49 -3 484 c-3 520 0 553 49 616 25 32 87 65 140 74 73 13 181 5 240
-18z m913 4 c9 -9 16 -32 16 -54 0 -62 -15 -70 -141 -70 l-109 0 0 -584 c0
-434 -3 -587 -12 -592 -20 -13 -130 -6 -139 8 -5 7 -9 273 -9 591 l0 577 -101
0 c-127 0 -139 6 -139 70 0 36 5 52 18 59 10 6 129 11 309 11 252 0 294 -2
307 -16z m717 6 c14 -8 19 -21 19 -55 0 -68 -13 -75 -141 -75 l-109 0 0 -585
c0 -459 -3 -587 -12 -590 -26 -10 -94 -12 -115 -4 l-23 8 0 586 0 585 -109 0
c-128 0 -141 7 -141 75 0 31 5 47 18 54 23 14 587 15 613 1z"/>
<path d="M1215 2533 c-45 -9 -73 -26 -84 -49 -14 -32 -16 -940 -1 -978 19 -51
118 -73 180 -41 60 31 60 30 60 525 0 495 -1 507 -58 528 -38 14 -74 20 -97
15z"/>
</g>
</svg>
