<svg width="86" height="90" viewBox="0 0 86 90" xmlns="http://www.w3.org/2000/svg"><title>Artboard</title><desc>Created with Sketch.</desc><g fill="none"><path d="M84.645 64.274c-.07.229-6.693 25.643-32.717 25.635-22.496-.007-33.158-19.526-33.158-19.526-1.639.091-3.221-.169-4.68-.704-6.6-2.42-9.767-9.958-7.489-16.282l-3.627-2.767c-14.051-10.685 25.753-59.583 39.829-48.518l3.36 2.699c5.054-3.064 10.059-4.72 14.128-4.72 2.889 0 5.306.835 6.933 2.594 3.653 3.949 2.34 11.49-2.648 19.124 1.073 1.017 1.962 2.399 2.597 3.771 1.586 1.222 2.614 3.079 3.125 5.644.569 2.852.687 6.914 1.044 8.66 1.345.606.772.326 2.207 1.041 1.496.746 3.317 1.655 5.329 3.588 3.577.895 4.944 4.692 2.85 7.283-.056.069-.309.368-.571.666.063.164.749 1.274 1.244 3.534 1.482.35 2.663 1.261 3.283 2.582 1.072 2.586-1.037 5.697-1.037 5.697zm-9.759 19.613v2.396h.96v-2.396h.982v-.756h-2.911v.756h.969zm2.236-.756v3.151h.876v-2.275l.715 2.275h.747l.715-2.281v2.281h.876v-3.151h-1.369l-.591 1.814-.6-1.814h-1.368z" fill="#5B453E"/><path d="M24.079 54.711c.567-1.438.852-2.618.852-2.618.649 1.98.981 4.062.85 6.167.538-.714 1.115-2.06 1.115-2.06 1.001 5.88-3.298 11.263-8.961 11.263-5.028 0-9.104-4.283-9.104-9.567s4.076-9.567 9.104-9.567c1.303 0 2.543.288 3.664.806 0 0 1.935.974 2.479 5.576zm49.539 20.735c7.057-5.535 8.29-12.202 8.408-12.432 1.737-2.079 1.265-4.128-1.03-4.128-.73 0-1.281.192-1.281.192s.008-3.034-1.397-5.397c-1.084 1.217-4.092 3.627-8.039 5.498-3.702 1.754-8.641 3.291-14.761 3.494-1.714.074-2.774-.204-3.371 1.79-.191.705-.108 1.751.035 2.054.483 1.652 1.744 2.38 3.405 2.766 1.259.293 2.596.32 2.596.32 12.413.347 22.381-9.317 22.501-9.398l.211-.206-.122.285c-1.793 4.025-12.174 11.324-22.507 11.115l-.034.012c-2.396-.009-5.308-.625-6.822-2.499-2.395-2.965-1.152-7.894 2.665-8.009l1.273-.03c9.451-.29 17.931-3.756 24.002-10.994.835-1.035-.098-2.458-1.907-2.501l-.042-.019c-2.145-2.293-4.031-3.103-5.709-3.954-3.517-1.789-3.186-.244-4.004-8.92-.221-2.339-.665-5.529-2.724-6.752-.539-.321-1.129-.458-1.742-.458-.605 0-.9.123-1.019.15-1.127.249-1.769.888-2.572 1.627-3.795 3.494-6.829 2.545-11.356 2.505-4.252-.037-8.007 2.924-8.725 7.471l-.001.003c-.349 2.38-.123 4.799.251 5.886 0 0-1.154-.767-1.704-1.445.666 4.154 4.462 6.869 4.462 6.869-.598.137-1.458.08-1.458.08.004.003 2.167 1.711 4.045 2.307-.489.304-2.964 2.742-4.241 6.098-1.194 3.141-.708 6.912-.708 6.912l1.037-1.544s-.678 3.44.634 6.772c.435-.991 1.386-2.76 1.386-2.76s-.151 3.695 1.631 6.72c.046-.698.313-2.476.313-2.476s1.022 3.154 3.384 5.36c4.421 3.917 16.128 4.624 25.038-2.365z" fill="#F2D9B4"/><path d="M7.963 50.706c-.036-.01-3.426-2.493-3.908-3.311-2.852-4.805 2.11-14.673 5.641-20.283 8.726-13.864 23.251-24.805 29.848-23.242l6.774 3.491c-2.63 1.545-5.174 3.442-6.698 4.704l-1.442 1.207s-4.21 2.829-6.303 4.613c-8.393 7.149-16.657 18.217-19.721 28.9 0 0-2.518 1.248-4.191 3.921" fill="#207EAC"/><path d="M39.544 3.87c-6.597-1.562-21.121 9.378-29.848 23.242l-.008.012.035.004 6.953 5.465c7.634-12.098 17.23-18.336 17.5-18.519l-1.102-7.405 2.065-.987 4.145 1.34-.317-1.382.576-1.77" fill="#4EB1D3"/><path d="M46.318 7.361l-6.698 4.703-.469.366-5.94-4.845-.136-.916 2.065-.987 4.145 1.34.069-2.569.19-.583 1.814-.694 4.96 4.185" fill="#FACD55"/><path d="M59.537 2.748c-4.43 0-9.403 2.326-13.219 4.613-.535.314-1.066.643-1.586.979l-1.996-1.671.725 2.515-.804.562-4.125-1.257 2.729 2.281c-.623.471-1.18.913-1.642 1.295l-6.545-5.395.347 2.418 4.757 4.184s-4.21 2.829-6.303 4.613c-8.393 7.149-16.657 18.217-19.721 28.9l.174-.098.071-.037.255-.132.164-.081.263-.12.156-.068.285-.112.132-.05.414-.136c2.084-.62 4.918-1.019 8.236.387 1.666-4.196 3.657-8.465 6.795-12.566 2.544-3.326 4.989-6.295 7.924-7.928 5.557-5.211 20.535-10.737 25.334-5.947 1.135-1.853 2.119-3.607 2.931-5.806 2.002-5.288 2.039-11.342-5.75-11.342" fill="#131B23"/><path fill="#131B23" d="M40.523 7.422l-.979-3.552-.576 1.77.345 1.391 1.211.391"/><path d="M79.714 59.075s.008-3.034-1.397-5.397c-1.084 1.217-4.092 3.627-8.039 5.498-3.701 1.754-8.641 3.291-14.761 3.494-1.714.074-2.774-.204-3.371 1.79-.047.172-.077.364-.094.561l-.001.02h-.001l-.012.191.003.483.001.01.002.031.022.251.001.012.002.012c.04.317.103.464.111.481l.001.002.008.027c.489 1.633 1.745 2.356 3.397 2.739 1.259.293 2.596.32 2.596.32 10.128.284 18.629-6.098 21.48-8.501.049-.673.078-1.154.053-2.025zm-29.096-54.009c2.42-1.114 5.013-1.993 7.5-2.247-2.47.555-5.481 1.833-9.047 4.012-.087.05-8.439 5.677-13.542 10.73-2.781 2.754-13.947 16.121-13.939 16.11 2.041-3.855 3.385-5.748 6.616-9.804 1.827-2.294 3.777-4.525 5.773-6.585.671-.693 1.347-1.366 2.026-2.015.259-.248 6.094-6.213 14.613-10.201z" fill="#fff"/><path d="M73.617 75.446c-1.211.95-2.474 1.758-3.764 2.435-2.982-1.131-4.812-3.542-4.812-3.542s2.557-.603 5.974-2.338c4.156-2.108 8.041-5.154 11.01-8.987-.118.23-1.351 6.897-8.408 12.432zm-8.116-32.137c-1.442-1.024-3.831-.209-4.358 1.486.835.042 1.72.672 1.666 1.479.589-.569 1.427-.891 2.243-.876-.393-.629-.195-1.715.45-2.089zm-15.134 20.681c.454-1.688 1.738-3.026 3.704-3.085l1.273-.03c9.451-.29 17.931-3.756 24.002-10.994.835-1.035-.098-2.458-1.907-2.501h-.026c-.306.323-.361.913-.867 1.795-1.847 3.203-4.401 4.668-7.807 6.367-10.443 5.19-15.859 2.775-18.032 5.953-.632.935-.644 1.98-.34 2.496zm18.896-21.768c-.999-.715-1.034-1.964-1.579-7.736-.174-1.841-.487-4.209-1.615-5.731-.233-.204-.562-.438-1.034-.438-.713-.031-1.519.706-1.976 1.21-1.297 1.869-2.536 3.072-4.727 4.115-2.218 1.002-4.326 1.366-6.514 1.297-1.602-.051-3.005-.314-4.38-.332-2.548-.04-4.756.785-6.366 2.813-1.104 1.391-1.547 2.862-1.688 4.613l.027.597c.019.278.044.544.075.793.112.887.273 1.347.273 1.347l-.003.02.041.125s-1.154-.766-1.704-1.445c.555 3.463 3.286 5.926 4.179 6.65l.156.121.012.012.116.087c-.598.137-1.458.08-1.458.08.004.003 2.167 1.711 4.045 2.307 2.491-2.102 5.316-2.908 7.634-3.159 1.405-.871 2.916-1.726 4.538-2.55-.491-3.054 2.222-6.129 5.636-6.424 2.576-.187 3.829.965 4.732 2.198.49-.156 1.042-.327 1.659-.508l-.077-.063zm1.232 20.568l-.096.016c-1.029.238-11.641 4.342-18.35 2.238-.03.366-.02 1.136.13 1.471l.001.002c1.015.203 2.299.333 3.79.333 8.828 0 15.19-4.007 14.526-4.06zm-49.389-.823l.008-.005c.538-.577.763-1.383.635-2.154-.198-1.109-1.457-1.333-2.29-2.194l-.039-.041-.041-.046-.003-.003c-.374-.43-.504-.919-.474-1.355.066-1.134 1.075-1.454 1.6-1.245 0 0 .623.147 1.105.819v-.003c-.073-.222-.058-.58-.436-1.114-.619-.875-2.04-1.765-4.055-1.339l-.531.137-.155.051-.325.145c-.053.03-.356.167-.72.441-2.265 2.918 1.571 8.211 5.72 7.905z" fill="#E2B986"/><path d="M54.499 44.006c.191.279.242.49.165.577-.154.18-.704-.063-1.517-.379-2.079-.774-3.611-.892-6.323.132-.686.261-1.172.463-1.405.428-.38-.056-.012-.751.819-1.426 1.672-1.332 3.969-1.745 5.932-1.016.859.316 1.824.946 2.329 1.683zm-.412 2.123c-.57-.435-1.62-.726-2.71-.541-.229.035-.44.106-.648.161l-.22.075c-.451.19-.841.394-1.219.756-.434.419-.558.808-.432.904.123.098.424-.047.889-.235 1.556-.646 2.658-.663 3.707-.59.506.034.845.064.923-.073.055-.093-.045-.271-.29-.457zm-33.512 7.968h.001c.255.203.451.419.597.626.479.676.326 1.071.523 1.263.071.069.172.091.273.05.271-.112.405-.543.43-.843v-.002c.068-.723-.315-1.536-.822-2.111l-.001-.002c-.31-.36-.719-.695-1.205-.966-.487-.271-1.052-.476-1.673-.572-1.073-.167-2.129.047-2.424.135h.002c-.152.044-.34.084-.501.147-1.751.681-2.902 1.933-3.415 3.589v.002c-.19.631-.265 1.24-.265 1.802 0 .485.056.936.143 1.337v.001-.001c.148.676.451 1.437.924 1.936l.001.001c.591.638 1.239.516.962-.078-.066-.164-.423-.836-.471-2.052-.031-.796.078-1.624.371-2.379.162-.409.384-.807.672-1.164.595-.727 1.326-1.052 1.411-1.099l.325-.146.155-.051.531-.137c1.401-.296 2.606.028 3.456.712zm-.299 2.7c-.194-.153-.283-.284-.337-.484-.079-.366-.038-.579.276-.799.241-.165.436-.245.436-.348.011-.196-.797-.398-1.361.157-.469.499-.617 1.538.131 2.348.833.897 2.127 1.108 2.329 2.236.027.16.046.338.032.513.003.202-.065.492-.068.51-.25 1.089-1.286 2.128-2.993 1.864-.315-.046-.518-.084-.579.002-.132.183.6 1.019 1.94.988 1.311-.028 2.611-1.007 3.028-2.48.005-.019.128-.436.138-.811.023-.277.003-.562-.048-.86-.341-1.891-2.223-2.279-2.923-2.836zm45.675-13.497c-.518-.081-1.027.429-1.138 1.138-.111.709.219 1.349.737 1.43.518.081 1.027-.429 1.138-1.138.111-.709-.219-1.349-.737-1.43zm-5.69 2.068c-.285.519.062 1.255.774 1.645.712.39 1.521.285 1.805-.233.285-.519-.062-1.255-.775-1.645-.712-.39-1.521-.285-1.805.233zm-20.849-20.976c9.8-6.341 19.589-7.07 22.943-4.496l.001-.001-.081-.206c-.852-1.806-2.839-3.066-4.609-3.572.311.322.76.911.941 1.262-1.336-.916-3.111-1.722-4.963-2.106l.258.193c.369.343.861.886 1.062 1.352-1.771-.71-4.009-1.107-5.925-.739l-.24.055.305.078c.635.188 1.542.574 1.942 1.104-3.181-.558-6.679.06-8.566 1.113l.446-.006c.694.018 2.093.113 2.68.486-2.006.407-4.91 1.303-6.472 2.645.276-.032 1.842-.231 2.483-.129-8.603 4.914-12.518 12.344-12.518 12.344 2.536-3.299 5.827-6.475 10.314-9.378z" fill="#916D53"/><path d="M62.533 38.245c-.013-.674.093-1.788.729-1.996h.001c1.087-.376 2.526 2.402 2.592 4.869-.859-.429-1.868-.611-2.906-.522-.261-.794-.386-1.542-.417-2.351" fill="#5B453E"/></g></svg>