<svg xmlns="http://www.w3.org/2000/svg" width="81.563" height="32.154"><pattern x="-112.542" y="461.915" width="69" height="69" patternUnits="userSpaceOnUse" viewBox="2.125 -70.896 69 69" overflow="visible"><polygon points="71.125,-1.896 2.125,-1.896 2.125,-70.896 71.125,-70.896" fill="none"/><polygon fill="#F7BC60" points="71.125,-1.896 2.125,-1.896 2.125,-70.896 71.125,-70.896"/><g fill="#fff"><path d="M61.772-71.653c.018.072.007.127-.026.19l-.165.128c-.05.062-.099.276-.079.362-.169.058-.01.227-.015.35l-.045.161c-.01.119.017.266.068.37.097.198.268.413.435.544.19.148.365.572.608.631.177.042.384-.104.543-.143.18-.043.397.01.571-.053.222-.079.127-.337.288-.45.104-.074.287-.01.406-.051.2-.069.339-.263.376-.46l.039-.221c.038-.103.111-.16.09-.293l-.065-.187.001-.337c-.003-.2.017-.379-.078-.55-.38-.688-1.236-.929-1.975-.789-.18.034-.287.126-.442.207-.17.088-.139.166-.318.224-.081.026-.216.124-.215.224l.012.169-.03-.025"/><path d="M54.105-71.653c.018.072.007.127-.026.19l-.165.128c-.05.062-.099.276-.079.362-.169.058-.01.227-.015.35l-.045.161c-.01.119.017.266.068.37.097.198.268.413.435.544.19.148.365.572.608.631.177.042.384-.104.543-.143.18-.043.397.01.571-.053.222-.079.127-.337.288-.45.104-.074.287-.01.406-.051.2-.069.339-.263.376-.46l.039-.221c.038-.103.111-.16.09-.293l-.064-.187v-.337c-.003-.2.017-.379-.078-.55-.38-.688-1.236-.929-1.975-.789-.18.034-.287.126-.442.207-.17.088-.139.166-.318.224-.081.026-.216.124-.215.224l.012.169-.03-.025"/><path d="M46.439-71.653c.018.072.007.127-.026.19l-.165.128c-.05.062-.099.276-.079.362-.169.058-.01.227-.015.35l-.045.161c-.01.119.017.266.068.37.097.198.268.413.435.544.19.148.365.572.608.631.177.042.384-.104.543-.143.18-.043.397.01.571-.053.222-.079.127-.337.288-.45.104-.074.287-.01.406-.051.2-.069.339-.263.376-.46l.039-.221c.038-.103.111-.16.09-.293l-.064-.187v-.337c-.003-.2.017-.379-.078-.55-.38-.688-1.236-.929-1.975-.789-.18.034-.287.126-.442.207-.17.088-.139.166-.318.224-.081.026-.216.124-.215.224l.012.169-.03-.025"/><path d="M38.772-71.653c.018.072.007.127-.026.19l-.165.128c-.05.062-.099.276-.079.362-.169.058-.01.227-.015.35l-.045.161c-.01.119.017.266.068.37.097.198.268.413.435.544.19.148.365.572.608.631.177.042.384-.104.543-.143.18-.043.397.01.571-.053.222-.079.127-.337.288-.45.104-.074.287-.01.406-.051.2-.069.339-.263.376-.46l.039-.221c.038-.103.111-.16.09-.293l-.064-.187v-.337c-.003-.2.017-.379-.078-.55-.38-.688-1.236-.929-1.975-.789-.18.034-.287.126-.442.207-.17.088-.139.166-.318.224-.081.026-.216.124-.215.224l.012.169-.03-.025"/><path d="M31.105-71.653c.017.072.007.127-.026.19l-.165.128c-.05.062-.099.276-.079.362-.169.058-.01.227-.015.35l-.045.161c-.01.119.017.266.068.37.097.198.268.413.435.544.19.148.365.572.608.631.177.042.384-.104.543-.143.18-.043.397.01.571-.053.222-.079.127-.337.288-.45.104-.074.287-.01.406-.051.2-.069.339-.263.376-.46l.039-.221c.038-.103.111-.16.09-.293l-.064-.187v-.337c-.003-.2.017-.379-.078-.55-.38-.688-1.236-.929-1.975-.789-.18.034-.287.126-.442.207-.17.088-.139.166-.318.224-.081.026-.216.124-.215.224l.012.169-.03-.025"/><path d="M23.439-71.653c.017.072.007.127-.026.19l-.165.128c-.05.062-.099.276-.079.362-.169.058-.01.227-.015.35l-.045.161c-.01.119.017.266.068.37.097.198.268.413.435.544.19.148.365.572.608.631.177.042.384-.104.543-.143.18-.043.397.01.571-.053.222-.079.127-.337.288-.45.104-.074.287-.01.406-.051.2-.069.339-.263.376-.46l.039-.221c.038-.103.111-.16.09-.293l-.065-.187v-.337c-.003-.2.017-.379-.078-.55-.38-.688-1.236-.929-1.975-.789-.18.034-.287.126-.442.207-.17.088-.139.166-.318.224-.081.026-.216.124-.215.224l.012.169-.03-.025"/><path d="M15.773-71.653c.017.072.007.127-.026.19l-.165.128c-.05.062-.099.276-.079.362-.169.058-.01.227-.015.35l-.045.161c-.01.119.017.266.068.37.097.198.268.413.435.544.19.148.365.572.608.631.177.042.384-.104.543-.143.18-.043.397.01.571-.053.222-.079.127-.337.288-.45.104-.074.287-.01.406-.051.2-.069.339-.263.376-.46l.039-.221c.038-.103.111-.16.09-.293l-.065-.187v-.337c-.003-.2.017-.379-.078-.55-.38-.688-1.236-.929-1.975-.789-.18.034-.287.126-.442.207-.17.088-.139.166-.318.224-.081.026-.216.124-.215.224l.012.169-.03-.025"/><path d="M8.105-71.653c.018.072.007.127-.026.19l-.165.128c-.05.062-.099.276-.079.362-.169.058-.01.227-.015.35l-.045.161c-.01.119.017.266.068.37.097.198.268.413.435.544.19.148.365.572.608.631.177.042.384-.104.543-.143.18-.043.397.01.571-.053.222-.079.127-.337.288-.45.105-.074.287-.01.406-.051.2-.069.339-.263.376-.46l.039-.221c.038-.103.111-.16.09-.293l-.064-.187v-.337c-.003-.2.017-.379-.078-.55-.38-.688-1.236-.929-1.975-.789-.18.034-.287.126-.442.207-.17.088-.139.166-.318.224-.081.026-.216.124-.215.224l.012.169-.03-.025"/><path d="M.439-71.653c.018.072.008.127-.026.19l-.165.128c-.051.062-.099.276-.079.362-.169.058-.01.227-.015.35l-.045.161c-.01.119.017.266.068.37.097.198.268.413.435.544.19.148.365.572.608.631.177.042.384-.104.543-.143.18-.043.397.01.571-.053.222-.079.127-.337.288-.45.104-.074.287-.01.406-.051.2-.07.339-.263.376-.46l.039-.221c.038-.103.111-.16.09-.293l-.064-.187v-.337c-.003-.2.017-.379-.078-.55-.38-.688-1.236-.929-1.975-.789-.18.034-.287.126-.442.207-.17.088-.139.166-.318.224-.081.026-.215.124-.215.224l.012.169-.03-.025"/></g><path fill="#fff" d="M69.439-71.653c.017.072.008.127-.026.19l-.165.128c-.051.062-.099.276-.079.362-.169.058-.01.227-.015.35l-.045.161c-.01.119.017.266.068.37.097.198.268.413.435.544.19.148.365.572.608.631.177.042.384-.104.543-.143.18-.043.397.01.571-.053.222-.079.127-.337.288-.45.104-.074.287-.01.406-.051.2-.07.339-.263.376-.46l.039-.221c.038-.103.111-.16.09-.293l-.064-.187.001-.337c-.003-.2.017-.379-.078-.55-.38-.688-1.236-.929-1.975-.789-.18.034-.287.126-.442.207-.17.088-.139.166-.318.224-.081.026-.215.124-.215.224l.012.169-.03-.025"/><path fill="#fff" d="M.495-71.653c.018.072.008.127-.026.19l-.165.128c-.051.062-.099.276-.079.362-.169.058-.01.227-.015.35l-.045.161c-.01.119.017.266.068.37.097.198.268.413.435.544.19.148.365.572.608.631.177.042.384-.104.543-.143.18-.043.397.01.571-.053.222-.079.127-.337.288-.45.104-.074.287-.01.406-.051.2-.07.339-.263.376-.46l.039-.221c.038-.103.111-.16.09-.293l-.064-.187v-.337c-.003-.2.017-.379-.078-.55-.38-.688-1.236-.929-1.975-.789-.18.034-.287.126-.442.207-.17.088-.139.166-.318.224-.081.026-.215.124-.215.224l.013.17-.03-.025"/><g fill="#fff"><path d="M69.439-64.001c.017.072.007.127-.026.19l-.165.128c-.05.062-.099.276-.079.362-.169.058-.01.227-.015.35l-.045.161c-.01.119.017.266.068.37.097.198.268.413.435.544.19.148.365.572.608.631.177.042.384-.104.543-.143.18-.043.397.01.571-.053.222-.079.127-.337.288-.45.104-.074.287-.01.406-.051.2-.069.339-.263.376-.46l.039-.221c.039-.102.111-.16.09-.293l-.064-.187.001-.337c-.003-.2.017-.379-.078-.55-.38-.688-1.236-.929-1.975-.789-.18.034-.287.126-.442.207-.17.088-.139.166-.318.224-.081.026-.216.124-.215.224l.012.169-.03-.025"/><path d="M61.778-64.001c.018.072.007.127-.026.19l-.165.128c-.05.062-.099.276-.079.362-.169.058-.009.227-.015.35l-.045.161c-.01.119.017.266.068.37.097.198.268.413.435.544.19.148.365.572.608.631.177.042.384-.104.543-.143.18-.043.397.01.571-.053.222-.079.127-.337.288-.45.104-.074.287-.01.406-.051.2-.069.339-.263.376-.46l.039-.221c.039-.102.111-.16.09-.293l-.064-.187v-.337c-.003-.2.017-.379-.078-.55-.38-.688-1.236-.929-1.975-.789-.18.034-.287.126-.442.207-.17.088-.139.166-.318.224-.081.026-.216.124-.215.224l.012.169-.03-.025"/><path d="M54.118-64.001c.018.072.007.127-.026.19l-.165.128c-.05.062-.099.276-.079.362-.169.058-.009.227-.015.35l-.045.161c-.01.119.017.266.068.37.097.198.268.413.435.544.19.148.365.572.608.631.177.042.384-.104.543-.143.18-.043.397.01.571-.053.222-.079.127-.337.288-.45.104-.074.287-.01.406-.051.2-.069.339-.263.376-.46l.039-.221c.038-.102.111-.16.09-.293l-.064-.187v-.337c-.003-.2.017-.379-.078-.55-.38-.688-1.236-.929-1.975-.789-.18.034-.287.126-.442.207-.17.088-.139.166-.318.224-.081.026-.216.124-.215.224l.012.169-.03-.025"/><path d="M46.458-64.001c.018.072.007.127-.026.19l-.165.128c-.05.062-.099.276-.079.362-.169.058-.009.227-.015.35l-.045.161c-.01.119.017.266.068.37.097.198.268.413.435.544.19.148.365.572.608.631.177.042.384-.104.543-.143.18-.043.397.01.571-.053.222-.079.127-.337.288-.45.104-.074.287-.01.406-.051.2-.069.339-.263.376-.46l.039-.221c.039-.102.111-.16.09-.293l-.064-.187v-.337c-.003-.2.017-.379-.078-.55-.38-.688-1.236-.929-1.975-.789-.18.034-.287.126-.442.207-.17.088-.139.166-.318.224-.081.026-.216.124-.215.224l.012.169-.03-.025"/><path d="M38.797-64.001c.017.072.007.127-.026.19l-.165.128c-.05.062-.099.276-.079.362-.169.058-.009.227-.015.35l-.045.161c-.01.119.017.266.068.37.097.198.268.413.435.544.19.148.365.572.608.631.177.042.384-.104.543-.143.18-.043.397.01.571-.053.222-.079.127-.337.288-.45.104-.074.287-.01.406-.051.2-.069.339-.263.376-.46l.039-.221c.039-.102.111-.16.09-.293l-.065-.187v-.337c-.003-.2.017-.379-.078-.55-.38-.688-1.236-.929-1.975-.789-.18.034-.287.126-.442.207-.17.088-.139.166-.318.224-.081.026-.216.124-.215.224l.012.169-.03-.025"/><path d="M31.137-64.001c.018.072.007.127-.026.19l-.165.128c-.05.062-.099.276-.079.362-.169.058-.009.227-.015.35l-.045.161c-.01.119.017.266.068.37.097.198.268.413.435.544.19.148.365.572.608.631.177.042.384-.104.543-.143.18-.043.397.01.571-.053.222-.079.127-.337.288-.45.104-.074.287-.01.406-.051.2-.069.339-.263.376-.46l.039-.221c.039-.102.111-.16.09-.293l-.064-.187v-.337c-.003-.2.017-.379-.078-.55-.38-.688-1.236-.929-1.975-.789-.18.034-.287.126-.442.207-.17.088-.139.166-.318.224-.081.026-.216.124-.215.224l.012.169-.03-.025"/><path d="M23.477-64.001c.017.072.007.127-.026.19l-.165.128c-.05.062-.099.276-.079.362-.169.058-.009.227-.015.35l-.045.161c-.01.119.017.266.068.37.097.198.268.413.435.544.19.148.365.572.608.631.177.042.384-.104.543-.143.18-.043.397.01.571-.053.222-.079.127-.337.288-.45.104-.074.287-.01.406-.051.2-.069.339-.263.376-.46l.039-.221c.038-.102.111-.16.09-.293l-.065-.187v-.337c-.003-.2.017-.379-.078-.55-.38-.688-1.236-.929-1.975-.789-.18.034-.287.126-.442.207-.17.088-.139.166-.318.224-.081.026-.216.124-.215.224l.012.169-.03-.025"/><path d="M15.816-64.001c.018.072.007.127-.026.19l-.165.128c-.05.062-.099.276-.079.362-.169.058-.009.227-.015.35l-.045.161c-.01.119.017.266.068.37.097.198.268.413.435.544.19.148.365.572.608.631.177.042.384-.104.543-.143.18-.043.397.01.571-.053.222-.079.128-.337.288-.45.104-.074.287-.01.406-.051.2-.069.339-.263.376-.46l.039-.221c.039-.102.111-.16.09-.293l-.064-.187v-.337c-.003-.2.017-.379-.078-.55-.38-.688-1.236-.929-1.975-.789-.18.034-.287.126-.442.207-.17.088-.139.166-.318.224-.081.026-.216.124-.215.224l.012.169-.03-.025"/><path d="M8.156-64.001c.018.072.007.127-.026.19l-.165.128c-.05.062-.099.276-.079.362-.169.058-.009.227-.015.35l-.045.161c-.01.119.017.266.068.37.097.198.268.413.435.544.19.148.365.572.608.631.177.042.384-.104.543-.143.18-.043.397.01.571-.053.222-.079.127-.337.288-.45.104-.074.287-.01.406-.051.2-.069.339-.263.376-.46l.039-.221c.038-.102.111-.16.09-.293l-.064-.187v-.337c-.003-.2.017-.379-.078-.55-.38-.688-1.236-.929-1.975-.789-.18.034-.287.126-.442.207-.17.088-.139.166-.318.224-.081.026-.216.124-.215.224l.012.169-.03-.025"/><path d="M.495-64.001c.018.072.007.127-.026.19l-.165.128c-.05.062-.099.276-.079.362-.169.058-.01.227-.015.35l-.045.161c-.01.119.017.266.068.37.097.198.268.413.435.544.19.148.365.572.608.631.177.042.384-.104.543-.143.181-.042.398.011.572-.052.222-.079.127-.337.288-.45.104-.074.287-.01.406-.051.2-.069.339-.263.376-.46l.039-.221c.039-.102.111-.16.09-.293l-.064-.187v-.337c-.003-.2.017-.379-.078-.55-.38-.688-1.236-.929-1.975-.789-.18.034-.287.126-.442.207-.17.088-.139.166-.318.224-.081.026-.216.124-.215.224l.012.169-.03-.025"/><path d="M69.439-56.348c.017.072.007.127-.026.19l-.165.128c-.05.062-.099.276-.079.362-.169.058-.01.227-.015.35l-.045.161c-.01.119.017.266.068.37.097.198.268.413.435.544.19.148.365.572.608.631.177.042.384-.104.543-.143.18-.043.397.01.571-.053.222-.079.127-.337.288-.45.104-.074.287-.01.406-.051.2-.069.339-.263.376-.46l.039-.221c.039-.103.111-.16.09-.293l-.064-.187.001-.337c-.003-.2.017-.379-.078-.55-.38-.688-1.236-.929-1.975-.789-.18.034-.287.126-.442.207-.17.088-.139.166-.318.224-.081.026-.216.124-.215.224l.012.169-.03-.025"/><path d="M61.778-56.348c.018.072.007.127-.026.19l-.165.128c-.05.062-.099.276-.079.362-.169.058-.009.227-.015.35l-.045.161c-.01.119.017.266.068.37.097.198.268.413.435.544.19.148.365.572.608.631.177.042.384-.104.543-.143.18-.043.397.01.571-.053.222-.079.127-.337.288-.45.104-.074.287-.01.406-.051.2-.069.339-.263.376-.46l.039-.221c.039-.103.111-.16.09-.293l-.064-.187v-.337c-.003-.2.017-.379-.078-.55-.38-.688-1.236-.929-1.975-.789-.18.034-.287.126-.442.207-.17.088-.139.166-.318.224-.081.026-.216.124-.215.224l.012.169-.03-.025"/><path d="M54.118-56.348c.018.072.007.127-.026.19l-.165.128c-.05.062-.099.276-.079.362-.169.058-.009.227-.015.35l-.045.161c-.01.119.017.266.068.37.097.198.268.413.435.544.19.148.365.572.608.631.177.042.384-.104.543-.143.18-.043.397.01.571-.053.222-.079.127-.337.288-.45.104-.074.287-.01.406-.051.2-.069.339-.263.376-.46l.039-.221c.038-.103.111-.16.09-.293l-.064-.187v-.337c-.003-.2.017-.379-.078-.55-.38-.688-1.236-.929-1.975-.789-.18.034-.287.126-.442.207-.17.088-.139.166-.318.224-.081.026-.216.124-.215.224l.012.169-.03-.025"/><path d="M46.458-56.348c.018.072.007.127-.026.19l-.165.128c-.05.062-.099.276-.079.362-.169.058-.009.227-.015.35l-.045.161c-.01.119.017.266.068.37.097.198.268.413.435.544.19.148.365.572.608.631.177.042.384-.104.543-.143.18-.043.397.01.571-.053.222-.079.127-.337.288-.45.104-.074.287-.01.406-.051.2-.069.339-.263.376-.46l.039-.221c.039-.103.111-.16.09-.293l-.064-.187v-.337c-.003-.2.017-.379-.078-.55-.38-.688-1.236-.929-1.975-.789-.18.034-.287.126-.442.207-.17.088-.139.166-.318.224-.081.026-.216.124-.215.224l.012.169-.03-.025"/><path d="M38.797-56.348c.017.072.007.127-.026.19l-.165.128c-.05.062-.099.276-.079.362-.169.058-.009.227-.015.35l-.045.161c-.01.119.017.266.068.37.097.198.268.413.435.544.19.148.365.572.608.631.177.042.384-.104.543-.143.18-.043.397.01.571-.053.222-.079.127-.337.288-.45.104-.074.287-.01.406-.051.2-.069.339-.263.376-.46l.039-.221c.039-.103.111-.16.09-.293l-.065-.187v-.337c-.003-.2.017-.379-.078-.55-.38-.688-1.236-.929-1.975-.789-.18.034-.287.126-.442.207-.17.088-.139.166-.318.224-.081.026-.216.124-.215.224l.012.169-.03-.025"/><path d="M31.137-56.348c.018.072.007.127-.026.19l-.165.128c-.05.062-.099.276-.079.362-.169.058-.009.227-.015.35l-.045.161c-.01.119.017.266.068.37.097.198.268.413.435.544.19.148.365.572.608.631.177.042.384-.104.543-.143.18-.043.397.01.571-.053.222-.079.127-.337.288-.45.104-.074.287-.01.406-.051.2-.069.339-.263.376-.46l.039-.221c.039-.103.111-.16.09-.293l-.064-.187v-.337c-.003-.2.017-.379-.078-.55-.38-.688-1.236-.929-1.975-.789-.18.034-.287.126-.442.207-.17.088-.139.166-.318.224-.081.026-.216.124-.215.224l.012.169-.03-.025"/><path d="M23.477-56.348c.017.072.007.127-.026.19l-.165.128c-.05.062-.099.276-.079.362-.169.058-.009.227-.015.35l-.045.161c-.01.119.017.266.068.37.097.198.268.413.435.544.19.148.365.572.608.631.177.042.384-.104.543-.143.18-.043.397.01.571-.053.222-.079.127-.337.288-.45.104-.074.287-.01.406-.051.2-.069.339-.263.376-.46l.039-.221c.038-.103.111-.16.09-.293l-.065-.187v-.337c-.003-.2.017-.379-.078-.55-.38-.688-1.236-.929-1.975-.789-.18.034-.287.126-.442.207-.17.088-.139.166-.318.224-.081.026-.216.124-.215.224l.012.169-.03-.025"/><path d="M15.816-56.348c.018.072.007.127-.026.19l-.165.128c-.05.062-.099.276-.079.362-.169.058-.009.227-.015.35l-.045.161c-.01.119.017.266.068.37.097.198.268.413.435.544.19.148.365.572.608.631.177.042.384-.104.543-.143.18-.043.397.01.571-.053.222-.079.128-.337.288-.45.104-.074.287-.01.406-.051.2-.069.339-.263.376-.46l.039-.221c.039-.103.111-.16.09-.293l-.064-.187v-.337c-.003-.2.017-.379-.078-.55-.38-.688-1.236-.929-1.975-.789-.18.034-.287.126-.442.207-.17.088-.139.166-.318.224-.081.026-.216.124-.215.224l.012.169-.03-.025"/><path d="M8.156-56.348c.018.072.007.127-.026.19l-.165.128c-.05.062-.099.276-.079.362-.169.058-.009.227-.015.35l-.045.161c-.01.119.017.266.068.37.097.198.268.413.435.544.19.148.365.572.608.631.177.042.384-.104.543-.143.18-.043.397.01.571-.053.222-.079.127-.337.288-.45.104-.074.287-.01.406-.051.2-.069.339-.263.376-.46l.039-.221c.038-.103.111-.16.09-.293l-.064-.187v-.337c-.003-.2.017-.379-.078-.55-.38-.688-1.236-.929-1.975-.789-.18.034-.287.126-.442.207-.17.088-.139.166-.318.224-.081.026-.216.124-.215.224l.012.169-.03-.025"/><path d="M.495-56.348c.018.072.007.127-.026.19l-.165.128c-.05.062-.099.276-.079.362-.169.058-.01.227-.015.35l-.045.161c-.01.119.017.266.068.37.097.198.268.413.435.544.19.148.365.572.608.631.177.042.384-.104.543-.143.18-.043.397.01.571-.053.222-.079.127-.337.288-.45.104-.074.287-.01.406-.051.2-.069.339-.263.376-.46l.039-.221c.039-.103.111-.16.09-.293l-.064-.187v-.337c-.003-.2.017-.379-.078-.55-.38-.688-1.236-.929-1.975-.789-.18.034-.287.126-.442.207-.17.088-.139.166-.318.224-.081.026-.216.124-.215.224l.013.171-.03-.025"/><path d="M69.439-48.695c.017.072.007.127-.026.19l-.165.128c-.05.062-.099.276-.079.362-.169.058-.01.226-.015.35l-.045.161c-.01.119.017.266.068.37.097.198.268.413.435.544.19.148.365.572.608.631.177.042.384-.104.543-.143.18-.043.397.01.571-.053.222-.079.127-.337.288-.45.104-.074.287-.01.406-.051.2-.069.339-.263.376-.46l.039-.221c.039-.103.111-.16.09-.293l-.064-.187.001-.337c-.003-.2.017-.379-.078-.55-.38-.688-1.236-.929-1.975-.789-.18.034-.287.126-.442.207-.17.088-.139.166-.318.224-.081.026-.216.124-.215.224l.012.169-.03-.025"/><path d="M61.778-48.695c.018.072.007.127-.026.19l-.165.128c-.05.062-.099.276-.079.362-.169.058-.009.226-.015.35l-.045.161c-.01.119.017.266.068.37.097.198.268.413.435.544.19.148.365.572.608.631.177.042.384-.104.543-.143.18-.043.397.01.571-.053.222-.079.127-.337.288-.45.104-.074.287-.01.406-.051.2-.069.339-.263.376-.46l.039-.221c.039-.103.111-.16.09-.293l-.064-.187v-.337c-.003-.2.017-.379-.078-.55-.38-.688-1.236-.929-1.975-.789-.18.034-.287.126-.442.207-.17.088-.139.166-.318.224-.081.026-.216.124-.215.224l.012.169-.03-.025"/><path d="M54.118-48.695c.018.072.007.127-.026.19l-.165.128c-.05.062-.099.276-.079.362-.169.058-.009.226-.015.35l-.045.161c-.01.119.017.266.068.37.097.198.268.413.435.544.19.148.365.572.608.631.177.042.384-.104.543-.143.18-.043.397.01.571-.053.222-.079.127-.337.288-.45.104-.074.287-.01.406-.051.2-.069.339-.263.376-.46l.039-.221c.038-.103.111-.16.09-.293l-.064-.187v-.337c-.003-.2.017-.379-.078-.55-.38-.688-1.236-.929-1.975-.789-.18.034-.287.126-.442.207-.17.088-.139.166-.318.224-.081.026-.216.124-.215.224l.012.169-.03-.025"/><path d="M46.458-48.695c.018.072.007.127-.026.19l-.165.128c-.05.062-.099.276-.079.362-.169.058-.009.226-.015.35l-.045.161c-.01.119.017.266.068.37.097.198.268.413.435.544.19.148.365.572.608.631.177.042.384-.104.543-.143.18-.043.397.01.571-.053.222-.079.127-.337.288-.45.104-.074.287-.01.406-.051.2-.069.339-.263.376-.46l.039-.221c.039-.103.111-.16.09-.293l-.064-.187v-.337c-.003-.2.017-.379-.078-.55-.38-.688-1.236-.929-1.975-.789-.18.034-.287.126-.442.207-.17.088-.139.166-.318.224-.081.026-.216.124-.215.224l.012.169-.03-.025"/><path d="M38.797-48.695c.017.072.007.127-.026.19l-.165.128c-.05.062-.099.276-.079.362-.169.058-.009.226-.015.35l-.045.161c-.01.119.017.266.068.37.097.198.268.413.435.544.19.148.365.572.608.631.177.042.384-.104.543-.143.18-.043.397.01.571-.053.222-.079.127-.337.288-.45.104-.074.287-.01.406-.051.2-.069.339-.263.376-.46l.039-.221c.039-.103.111-.16.09-.293l-.065-.187v-.337c-.003-.2.017-.379-.078-.55-.38-.688-1.236-.929-1.975-.789-.18.034-.287.126-.442.207-.17.088-.139.166-.318.224-.081.026-.216.124-.215.224l.012.169-.03-.025"/><path d="M31.137-48.695c.018.072.007.127-.026.19l-.165.128c-.05.062-.099.276-.079.362-.169.058-.009.226-.015.35l-.045.161c-.01.119.017.266.068.37.097.198.268.413.435.544.19.148.365.572.608.631.177.042.384-.104.543-.143.18-.043.397.01.571-.053.222-.079.127-.337.288-.45.104-.074.287-.01.406-.051.2-.069.339-.263.376-.46l.039-.221c.039-.103.111-.16.09-.293l-.064-.187v-.337c-.003-.2.017-.379-.078-.55-.38-.688-1.236-.929-1.975-.789-.18.034-.287.126-.442.207-.17.088-.139.166-.318.224-.081.026-.216.124-.215.224l.012.169-.03-.025"/><path d="M23.477-48.695c.017.072.007.127-.026.19l-.165.128c-.05.062-.099.276-.079.362-.169.058-.009.226-.015.35l-.045.161c-.01.119.017.266.068.37.097.198.268.413.435.544.19.148.365.572.608.631.177.042.384-.104.543-.143.18-.043.397.01.571-.053.222-.079.127-.337.288-.45.104-.074.287-.01.406-.051.2-.069.339-.263.376-.46l.039-.221c.038-.103.111-.16.09-.293l-.065-.187v-.337c-.003-.2.017-.379-.078-.55-.38-.688-1.236-.929-1.975-.789-.18.034-.287.126-.442.207-.17.088-.139.166-.318.224-.081.026-.216.124-.215.224l.012.169-.03-.025"/><path d="M15.816-48.695c.018.072.007.127-.026.19l-.165.128c-.05.062-.099.276-.079.362-.169.058-.009.226-.015.35l-.045.161c-.01.119.017.266.068.37.097.198.268.413.435.544.19.148.365.572.608.631.177.042.384-.104.543-.143.18-.043.397.01.571-.053.222-.079.128-.337.288-.45.104-.074.287-.01.406-.051.2-.069.339-.263.376-.46l.039-.221c.039-.103.111-.16.09-.293l-.064-.187v-.337c-.003-.2.017-.379-.078-.55-.38-.688-1.236-.929-1.975-.789-.18.034-.287.126-.442.207-.17.088-.139.166-.318.224-.081.026-.216.124-.215.224l.012.169-.03-.025"/><path d="M8.156-48.695c.018.072.007.127-.026.19l-.165.128c-.05.062-.099.276-.079.362-.169.058-.009.226-.015.35l-.045.161c-.01.119.017.266.068.37.097.198.268.413.435.544.19.148.365.572.608.631.177.042.384-.104.543-.143.18-.043.397.01.571-.053.222-.079.127-.337.288-.45.104-.074.287-.01.406-.051.2-.069.339-.263.376-.46l.039-.221c.038-.103.111-.16.09-.293l-.064-.187v-.337c-.003-.2.017-.379-.078-.55-.38-.688-1.236-.929-1.975-.789-.18.034-.287.126-.442.207-.17.088-.139.166-.318.224-.081.026-.216.124-.215.224l.012.169-.03-.025"/><path d="M.495-48.695c.018.072.007.127-.026.19l-.165.128c-.05.062-.099.276-.079.362-.169.058-.01.226-.015.35l-.045.161c-.01.119.017.266.068.37.097.198.268.413.435.544.19.148.365.572.608.631.177.042.384-.104.543-.143.18-.043.397.01.571-.053.222-.079.127-.337.288-.45.104-.074.287-.01.406-.051.2-.069.339-.263.376-.46l.039-.221c.039-.103.111-.16.09-.293l-.064-.187v-.337c-.003-.2.017-.379-.078-.55-.38-.688-1.236-.929-1.975-.789-.18.034-.287.126-.442.207-.17.088-.139.166-.318.224-.081.026-.216.124-.215.224l.012.169-.03-.025"/><path d="M69.439-41.042c.017.072.007.127-.026.19l-.165.128c-.05.062-.099.276-.079.362-.169.058-.01.227-.015.35l-.045.161c-.01.119.017.266.068.37.097.198.268.413.435.544.19.148.365.572.608.631.177.042.384-.104.543-.143.18-.043.397.01.571-.053.222-.079.127-.337.288-.45.104-.074.287-.01.406-.051.2-.069.339-.263.376-.46l.039-.221c.039-.103.111-.16.09-.293l-.064-.187.001-.337c-.003-.2.017-.379-.078-.55-.38-.688-1.236-.929-1.975-.789-.18.034-.287.126-.442.207-.17.088-.139.166-.318.224-.081.026-.216.124-.215.224l.012.169-.03-.025"/><path d="M61.778-41.042c.018.072.007.127-.026.19l-.165.128c-.05.062-.099.276-.079.362-.169.058-.009.227-.015.35l-.045.161c-.01.119.017.266.068.37.097.198.268.413.435.544.19.148.365.572.608.631.177.042.384-.104.543-.143.18-.043.397.01.571-.053.222-.079.127-.337.288-.45.104-.074.287-.01.406-.051.2-.069.339-.263.376-.46l.039-.221c.039-.103.111-.16.09-.293l-.064-.187v-.337c-.003-.2.017-.379-.078-.55-.38-.688-1.236-.929-1.975-.789-.18.034-.287.126-.442.207-.17.088-.139.166-.318.224-.081.026-.216.124-.215.224l.012.169-.03-.025"/><path d="M54.118-41.042c.018.072.007.127-.026.19l-.165.128c-.05.062-.099.276-.079.362-.169.058-.009.227-.015.35l-.045.161c-.01.119.017.266.068.37.097.198.268.413.435.544.19.148.365.572.608.631.177.042.384-.104.543-.143.18-.043.397.01.571-.053.222-.079.127-.337.288-.45.104-.074.287-.01.406-.051.2-.069.339-.263.376-.46l.039-.221c.038-.103.111-.16.09-.293l-.064-.187v-.337c-.003-.2.017-.379-.078-.55-.38-.688-1.236-.929-1.975-.789-.18.034-.287.126-.442.207-.17.088-.139.166-.318.224-.081.026-.216.124-.215.224l.012.169-.03-.025"/><path d="M46.458-41.042c.018.072.007.127-.026.19l-.165.128c-.05.062-.099.276-.079.362-.169.058-.009.227-.015.35l-.045.161c-.01.119.017.266.068.37.097.198.268.413.435.544.19.148.365.572.608.631.177.042.384-.104.543-.143.18-.043.397.01.571-.053.222-.079.127-.337.288-.45.104-.074.287-.01.406-.051.2-.069.339-.263.376-.46l.039-.221c.039-.103.111-.16.09-.293l-.064-.187v-.337c-.003-.2.017-.379-.078-.55-.38-.688-1.236-.929-1.975-.789-.18.034-.287.126-.442.207-.17.088-.139.166-.318.224-.081.026-.216.124-.215.224l.012.169-.03-.025"/><path d="M38.797-41.042c.017.072.007.127-.026.19l-.165.128c-.05.062-.099.276-.079.362-.169.058-.009.227-.015.35l-.045.161c-.01.119.017.266.068.37.097.198.268.413.435.544.19.148.365.572.608.631.177.042.384-.104.543-.143.18-.043.397.01.571-.053.222-.079.127-.337.288-.45.104-.074.287-.01.406-.051.2-.069.339-.263.376-.46l.039-.221c.039-.103.111-.16.09-.293l-.065-.187v-.337c-.003-.2.017-.379-.078-.55-.38-.688-1.236-.929-1.975-.789-.18.034-.287.126-.442.207-.17.088-.139.166-.318.224-.081.026-.216.124-.215.224l.012.169-.03-.025"/><path d="M31.137-41.042c.018.072.007.127-.026.19l-.165.128c-.05.062-.099.276-.079.362-.169.058-.009.227-.015.35l-.045.161c-.01.119.017.266.068.37.097.198.268.413.435.544.19.148.365.572.608.631.177.042.384-.104.543-.143.18-.043.397.01.571-.053.222-.079.127-.337.288-.45.104-.074.287-.01.406-.051.2-.069.339-.263.376-.46l.039-.221c.039-.103.111-.16.09-.293l-.064-.187v-.337c-.003-.2.017-.379-.078-.55-.38-.688-1.236-.929-1.975-.789-.18.034-.287.126-.442.207-.17.088-.139.166-.318.224-.081.026-.216.124-.215.224l.012.169-.03-.025"/><path d="M23.477-41.042c.017.072.007.127-.026.19l-.165.128c-.05.062-.099.276-.079.362-.169.058-.009.227-.015.35l-.045.161c-.01.119.017.266.068.37.097.198.268.413.435.544.19.148.365.572.608.631.177.042.384-.104.543-.143.18-.043.397.01.571-.053.222-.079.127-.337.288-.45.104-.074.287-.01.406-.051.2-.069.339-.263.376-.46l.039-.221c.038-.103.111-.16.09-.293l-.065-.187v-.337c-.003-.2.017-.379-.078-.55-.38-.688-1.236-.929-1.975-.789-.18.034-.287.126-.442.207-.17.088-.139.166-.318.224-.081.026-.216.124-.215.224l.012.169-.03-.025"/><path d="M15.816-41.042c.018.072.007.127-.026.19l-.165.128c-.05.062-.099.276-.079.362-.169.058-.009.227-.015.35l-.045.161c-.01.119.017.266.068.37.097.198.268.413.435.544.19.148.365.572.608.631.177.042.384-.104.543-.143.18-.043.397.01.571-.053.222-.079.128-.337.288-.45.104-.074.287-.01.406-.051.2-.069.339-.263.376-.46l.039-.221c.039-.103.111-.16.09-.293l-.064-.187v-.337c-.003-.2.017-.379-.078-.55-.38-.688-1.236-.929-1.975-.789-.18.034-.287.126-.442.207-.17.088-.139.166-.318.224-.081.026-.216.124-.215.224l.012.169-.03-.025"/><path d="M8.156-41.042c.018.072.007.127-.026.19l-.165.128c-.05.062-.099.276-.079.362-.169.058-.009.227-.015.35l-.045.161c-.01.119.017.266.068.37.097.198.268.413.435.544.19.148.365.572.608.631.177.042.384-.104.543-.143.18-.043.397.01.571-.053.222-.079.127-.337.288-.45.104-.074.287-.01.406-.051.2-.069.339-.263.376-.46l.039-.221c.038-.103.111-.16.09-.293l-.064-.187v-.337c-.003-.2.017-.379-.078-.55-.38-.688-1.236-.929-1.975-.789-.18.034-.287.126-.442.207-.17.088-.139.166-.318.224-.081.026-.216.124-.215.224l.012.169-.03-.024"/><path d="M.495-41.042c.018.072.007.127-.026.19l-.165.128c-.05.062-.099.276-.079.362-.169.058-.01.227-.015.35l-.045.161c-.01.119.017.266.068.37.097.198.268.413.435.544.19.148.365.572.608.631.177.042.384-.104.543-.143.18-.043.397.01.571-.053.222-.079.127-.337.288-.45.104-.074.287-.01.406-.051.2-.069.339-.263.376-.46l.039-.221c.039-.103.111-.16.09-.293l-.064-.187v-.337c-.003-.2.017-.379-.078-.55-.38-.688-1.236-.929-1.975-.789-.18.034-.287.126-.442.207-.17.088-.139.166-.318.224-.081.026-.216.124-.215.224l.012.169-.03-.025"/><path d="M69.439-33.39c.017.072.007.127-.026.19l-.165.128c-.05.062-.099.276-.079.362-.169.058-.01.227-.015.35l-.045.161c-.01.119.017.266.068.37.097.198.268.413.435.544.19.149.365.572.608.631.177.042.384-.104.543-.143.18-.043.397.01.571-.053.222-.079.127-.337.288-.45.104-.074.287-.01.406-.051.2-.069.339-.263.376-.46l.039-.221c.039-.103.111-.16.09-.293l-.064-.187.001-.337c-.003-.2.017-.379-.078-.55-.38-.688-1.236-.929-1.975-.789-.18.034-.287.126-.442.207-.17.088-.139.166-.318.224-.081.026-.216.124-.215.224l.012.169-.03-.025"/><path d="M61.778-33.39c.018.072.007.127-.026.19l-.165.128c-.05.062-.099.276-.079.362-.169.058-.009.227-.015.35l-.045.161c-.01.119.017.266.068.37.097.198.268.413.435.544.19.149.365.572.608.631.177.042.384-.104.543-.143.18-.043.397.01.571-.053.222-.079.127-.337.288-.45.104-.074.287-.01.406-.051.2-.069.339-.263.376-.46l.039-.221c.039-.103.111-.16.09-.293l-.064-.187v-.337c-.003-.2.017-.379-.078-.55-.38-.688-1.236-.929-1.975-.789-.18.034-.287.126-.442.207-.17.088-.139.166-.318.224-.081.026-.216.124-.215.224l.012.169-.03-.025"/><path d="M54.118-33.39c.018.072.007.127-.026.19l-.165.128c-.05.062-.099.276-.079.362-.169.058-.009.227-.015.35l-.045.161c-.01.119.017.266.068.37.097.198.268.413.435.544.19.149.365.572.608.631.177.042.384-.104.543-.143.18-.043.397.01.571-.053.222-.079.127-.337.288-.45.104-.074.287-.01.406-.051.2-.069.339-.263.376-.46l.039-.221c.038-.103.111-.16.09-.293l-.064-.187v-.337c-.003-.2.017-.379-.078-.55-.38-.688-1.236-.929-1.975-.789-.18.034-.287.126-.442.207-.17.088-.139.166-.318.224-.081.026-.216.124-.215.224l.012.169-.03-.025"/><path d="M46.458-33.39c.018.072.007.127-.026.19l-.165.128c-.05.062-.099.276-.079.362-.169.058-.009.227-.015.35l-.045.161c-.01.119.017.266.068.37.097.198.268.413.435.544.19.149.365.572.608.631.177.042.384-.104.543-.143.18-.043.397.01.571-.053.222-.079.127-.337.288-.45.104-.074.287-.01.406-.051.2-.069.339-.263.376-.46l.039-.221c.039-.103.111-.16.09-.293l-.064-.187v-.337c-.003-.2.017-.379-.078-.55-.38-.688-1.236-.929-1.975-.789-.18.034-.287.126-.442.207-.17.088-.139.166-.318.224-.081.026-.216.124-.215.224l.012.169-.03-.025"/><path d="M38.797-33.39c.017.072.007.127-.026.19l-.165.128c-.05.062-.099.276-.079.362-.169.058-.009.227-.015.35l-.045.161c-.01.119.017.266.068.37.097.198.268.413.435.544.19.149.365.572.608.631.177.042.384-.104.543-.143.18-.043.397.01.571-.053.222-.079.127-.337.288-.45.104-.074.287-.01.406-.051.2-.069.339-.263.376-.46l.039-.221c.039-.103.111-.16.09-.293l-.065-.187v-.337c-.003-.2.017-.379-.078-.55-.38-.688-1.236-.929-1.975-.789-.18.034-.287.126-.442.207-.17.088-.139.166-.318.224-.081.026-.216.124-.215.224l.012.169-.03-.025"/><path d="M31.137-33.39c.018.072.007.127-.026.19l-.165.128c-.05.062-.099.276-.079.362-.169.058-.009.227-.015.35l-.045.161c-.01.119.017.266.068.37.097.198.268.413.435.544.19.149.365.572.608.631.177.042.384-.104.543-.143.18-.043.397.01.571-.053.222-.079.127-.337.288-.45.104-.074.287-.01.406-.051.2-.069.339-.263.376-.46l.039-.221c.039-.103.111-.16.09-.293l-.064-.187v-.337c-.003-.2.017-.379-.078-.55-.38-.688-1.236-.929-1.975-.789-.18.034-.287.126-.442.207-.17.088-.139.166-.318.224-.081.026-.216.124-.215.224l.012.169-.03-.025"/><path d="M23.477-33.39c.017.072.007.127-.026.19l-.165.128c-.05.062-.099.276-.079.362-.169.058-.009.227-.015.35l-.045.161c-.01.119.017.266.068.37.097.198.268.413.435.544.19.149.365.572.608.631.177.042.384-.104.543-.143.18-.043.397.01.571-.053.222-.079.127-.337.288-.45.104-.074.287-.01.406-.051.2-.069.339-.263.376-.46l.039-.221c.038-.103.111-.16.09-.293l-.065-.187v-.337c-.003-.2.017-.379-.078-.55-.38-.688-1.236-.929-1.975-.789-.18.034-.287.126-.442.207-.17.088-.139.166-.318.224-.081.026-.216.124-.215.224l.012.169-.03-.025"/><path d="M15.816-33.39c.018.072.007.127-.026.19l-.165.128c-.05.062-.099.276-.079.362-.169.058-.009.227-.015.35l-.045.161c-.01.119.017.266.068.37.097.198.268.413.435.544.19.149.365.572.608.631.177.042.384-.104.543-.143.18-.043.397.01.571-.053.222-.079.128-.337.288-.45.104-.074.287-.01.406-.051.2-.069.339-.263.376-.46l.039-.221c.039-.103.111-.16.09-.293l-.064-.187v-.337c-.003-.2.017-.379-.078-.55-.38-.688-1.236-.929-1.975-.789-.18.034-.287.126-.442.207-.17.088-.139.166-.318.224-.081.026-.216.124-.215.224l.012.169-.03-.025"/><path d="M8.156-33.39c.018.072.007.127-.026.19l-.165.128c-.05.062-.099.276-.079.362-.169.058-.009.227-.015.35l-.045.161c-.01.119.017.266.068.37.097.198.268.413.435.544.19.149.365.572.608.631.177.042.384-.104.543-.143.18-.043.397.01.571-.053.222-.079.127-.337.288-.45.104-.074.287-.01.406-.051.2-.069.339-.263.376-.46l.039-.221c.038-.103.111-.16.09-.293l-.064-.187v-.337c-.003-.2.017-.379-.078-.55-.38-.688-1.236-.929-1.975-.789-.18.034-.287.126-.442.207-.17.088-.139.166-.318.224-.081.026-.216.124-.215.224l.012.169-.03-.025"/><path d="M.495-33.39c.018.072.007.127-.026.19l-.165.128c-.05.062-.099.276-.079.362-.169.058-.01.227-.015.35l-.045.161c-.01.119.017.266.068.37.097.198.268.413.435.544.19.149.365.572.608.631.177.042.384-.104.543-.143.18-.043.397.01.571-.053.222-.079.127-.337.288-.45.104-.074.287-.01.406-.051.2-.069.339-.263.376-.46l.039-.221c.039-.103.111-.16.09-.293l-.064-.187v-.337c-.003-.2.017-.379-.078-.55-.38-.688-1.236-.929-1.975-.789-.18.034-.287.126-.442.207-.17.088-.139.166-.318.224-.081.026-.216.124-.215.224l.013.171-.03-.025"/><path d="M69.439-25.736c.017.072.007.127-.026.19l-.165.128c-.05.062-.099.276-.079.362-.169.058-.01.227-.015.35l-.045.161c-.01.119.017.266.068.37.097.198.268.413.435.544.19.148.365.572.608.631.177.042.384-.104.543-.143.18-.043.397.01.571-.053.222-.079.127-.337.288-.45.104-.074.287-.01.406-.051.2-.069.339-.263.376-.46l.039-.221c.039-.102.111-.16.09-.293l-.064-.186.001-.337c-.003-.2.017-.379-.078-.55-.38-.688-1.236-.929-1.975-.789-.18.034-.287.126-.442.207-.17.088-.139.166-.318.224-.081.026-.216.124-.215.224l.012.169-.03-.025"/><path d="M61.778-25.736c.018.072.007.127-.026.19l-.165.128c-.05.062-.099.276-.079.362-.169.058-.009.227-.015.35l-.045.161c-.01.119.017.266.068.37.097.198.268.413.435.544.19.148.365.572.608.631.177.042.384-.104.543-.143.18-.043.397.01.571-.053.222-.079.127-.337.288-.45.104-.074.287-.01.406-.051.2-.069.339-.263.376-.46l.039-.221c.039-.102.111-.16.09-.293l-.064-.186v-.337c-.003-.2.017-.379-.078-.55-.38-.688-1.236-.929-1.975-.789-.18.034-.287.126-.442.207-.17.088-.139.166-.318.224-.081.026-.216.124-.215.224l.012.169-.03-.025"/><path d="M54.118-25.736c.018.072.007.127-.026.19l-.165.128c-.05.062-.099.276-.079.362-.169.058-.009.227-.015.35l-.045.161c-.01.119.017.266.068.37.097.198.268.413.435.544.19.148.365.572.608.631.177.042.384-.104.543-.143.18-.043.397.01.571-.053.222-.079.127-.337.288-.45.104-.074.287-.01.406-.051.2-.069.339-.263.376-.46l.039-.221c.038-.102.111-.16.09-.293l-.064-.186v-.337c-.003-.2.017-.379-.078-.55-.38-.688-1.236-.929-1.975-.789-.18.034-.287.126-.442.207-.17.088-.139.166-.318.224-.081.026-.216.124-.215.224l.012.169-.03-.025"/><path d="M46.458-25.736c.018.072.007.127-.026.19l-.165.128c-.05.062-.099.276-.079.362-.169.058-.009.227-.015.35l-.045.161c-.01.119.017.266.068.37.097.198.268.413.435.544.19.148.365.572.608.631.177.042.384-.104.543-.143.18-.043.397.01.571-.053.222-.079.127-.337.288-.45.104-.074.287-.01.406-.051.2-.069.339-.263.376-.46l.039-.221c.039-.102.111-.16.09-.293l-.064-.186v-.337c-.003-.2.017-.379-.078-.55-.38-.688-1.236-.929-1.975-.789-.18.034-.287.126-.442.207-.17.088-.139.166-.318.224-.081.026-.216.124-.215.224l.012.169-.03-.025"/><path d="M38.797-25.736c.017.072.007.127-.026.19l-.165.128c-.05.062-.099.276-.079.362-.169.058-.009.227-.015.35l-.045.161c-.01.119.017.266.068.37.097.198.268.413.435.544.19.148.365.572.608.631.177.042.384-.104.543-.143.18-.043.397.01.571-.053.222-.079.127-.337.288-.45.104-.074.287-.01.406-.051.2-.069.339-.263.376-.46l.039-.221c.039-.102.111-.16.09-.293l-.065-.186v-.337c-.003-.2.017-.379-.078-.55-.38-.688-1.236-.929-1.975-.789-.18.034-.287.126-.442.207-.17.088-.139.166-.318.224-.081.026-.216.124-.215.224l.012.169-.03-.025"/><path d="M31.137-25.736c.018.072.007.127-.026.19l-.165.128c-.05.062-.099.276-.079.362-.169.058-.009.227-.015.35l-.045.161c-.01.119.017.266.068.37.097.198.268.413.435.544.19.148.365.572.608.631.177.042.384-.104.543-.143.18-.043.397.01.571-.053.222-.079.127-.337.288-.45.104-.074.287-.01.406-.051.2-.069.339-.263.376-.46l.039-.221c.039-.102.111-.16.09-.293l-.064-.186v-.337c-.003-.2.017-.379-.078-.55-.38-.688-1.236-.929-1.975-.789-.18.034-.287.126-.442.207-.17.088-.139.166-.318.224-.081.026-.216.124-.215.224l.012.169-.03-.025"/><path d="M23.477-25.736c.017.072.007.127-.026.19l-.165.128c-.05.062-.099.276-.079.362-.169.058-.009.227-.015.35l-.045.161c-.01.119.017.266.068.37.097.198.268.413.435.544.19.148.365.572.608.631.177.042.384-.104.543-.143.18-.043.397.01.571-.053.222-.079.127-.337.288-.45.104-.074.287-.01.406-.051.2-.069.339-.263.376-.46l.039-.221c.038-.102.111-.16.09-.293l-.065-.186v-.337c-.003-.2.017-.379-.078-.55-.38-.688-1.236-.929-1.975-.789-.18.034-.287.126-.442.207-.17.088-.139.166-.318.224-.081.026-.216.124-.215.224l.012.169-.03-.025"/><path d="M15.816-25.736c.018.072.007.127-.026.19l-.165.128c-.05.062-.099.276-.079.362-.169.058-.009.227-.015.35l-.045.161c-.01.119.017.266.068.37.097.198.268.413.435.544.19.148.365.572.608.631.177.042.384-.104.543-.143.18-.043.397.01.571-.053.222-.079.128-.337.288-.45.104-.074.287-.01.406-.051.2-.069.339-.263.376-.46l.039-.221c.039-.102.111-.16.09-.293l-.064-.186v-.337c-.003-.2.017-.379-.078-.55-.38-.688-1.236-.929-1.975-.789-.18.034-.287.126-.442.207-.17.088-.139.166-.318.224-.081.026-.216.124-.215.224l.012.169-.03-.025"/><path d="M8.156-25.736c.018.072.007.127-.026.19l-.165.128c-.05.062-.099.276-.079.362-.169.058-.009.227-.015.35l-.045.161c-.01.119.017.266.068.37.097.198.268.413.435.544.19.148.365.572.608.631.177.042.384-.104.543-.143.18-.043.397.01.571-.053.222-.079.127-.337.288-.45.104-.074.287-.01.406-.051.2-.069.339-.263.376-.46l.039-.221c.038-.102.111-.16.09-.293l-.064-.186v-.337c-.003-.2.017-.379-.078-.55-.38-.688-1.236-.929-1.975-.789-.18.034-.287.126-.442.207-.17.088-.139.166-.318.224-.081.026-.216.124-.215.224l.012.169-.03-.025"/><path d="M.495-25.736c.018.072.007.127-.026.19l-.165.128c-.05.062-.099.276-.079.362-.169.058-.01.227-.015.35l-.045.161c-.01.119.017.266.068.37.097.198.268.413.435.544.19.148.365.572.608.631.177.042.384-.104.543-.143.18-.043.397.01.571-.053.222-.079.127-.337.288-.45.104-.074.287-.01.406-.051.2-.069.339-.263.376-.46l.039-.221c.039-.102.111-.16.09-.293l-.064-.186v-.337c-.003-.2.017-.379-.078-.55-.38-.688-1.236-.929-1.975-.789-.18.034-.287.126-.442.207-.17.088-.139.166-.318.224-.081.026-.216.124-.215.224l.012.169-.03-.025"/><path d="M69.439-18.084c.017.072.007.127-.026.19l-.165.128c-.05.062-.099.276-.079.362-.169.058-.01.226-.015.35l-.045.161c-.01.119.017.266.068.37.097.198.268.413.435.544.19.148.365.572.608.631.177.042.384-.104.543-.142.18-.043.397.01.571-.053.222-.079.127-.337.288-.45.104-.074.287-.01.406-.051.2-.069.339-.263.376-.46l.039-.221c.039-.103.111-.16.09-.293l-.064-.187.001-.337c-.003-.2.017-.379-.078-.55-.38-.688-1.236-.929-1.975-.789-.18.034-.287.126-.442.207-.17.088-.139.166-.318.224-.081.026-.216.124-.215.224l.012.169-.03-.025"/><path d="M61.778-18.084c.018.072.007.127-.026.19l-.165.128c-.05.062-.099.276-.079.362-.169.058-.009.226-.015.35l-.045.161c-.01.119.017.266.068.37.097.198.268.413.435.544.19.148.365.572.608.631.177.042.384-.104.543-.142.18-.043.397.01.571-.053.222-.079.127-.337.288-.45.104-.074.287-.01.406-.051.2-.069.339-.263.376-.46l.039-.221c.039-.103.111-.16.09-.293l-.064-.187v-.337c-.003-.2.017-.379-.078-.55-.38-.688-1.236-.929-1.975-.789-.18.034-.287.126-.442.207-.17.088-.139.166-.318.224-.081.026-.216.124-.215.224l.012.169-.03-.025"/><path d="M54.118-18.084c.018.072.007.127-.026.19l-.165.128c-.05.062-.099.276-.079.362-.169.058-.009.226-.015.35l-.045.161c-.01.119.017.266.068.37.097.198.268.413.435.544.19.148.365.572.608.631.177.042.384-.104.543-.142.18-.043.397.01.571-.053.222-.079.127-.337.288-.45.104-.074.287-.01.406-.051.2-.069.339-.263.376-.46l.039-.221c.038-.103.111-.16.09-.293l-.064-.187v-.337c-.003-.2.017-.379-.078-.55-.38-.688-1.236-.929-1.975-.789-.18.034-.287.126-.442.207-.17.088-.139.166-.318.224-.081.026-.216.124-.215.224l.012.169-.03-.025"/><path d="M46.458-18.084c.018.072.007.127-.026.19l-.165.128c-.05.062-.099.276-.079.362-.169.058-.009.226-.015.35l-.045.161c-.01.119.017.266.068.37.097.198.268.413.435.544.19.148.365.572.608.631.177.042.384-.104.543-.142.18-.043.397.01.571-.053.222-.079.127-.337.288-.45.104-.074.287-.01.406-.051.2-.069.339-.263.376-.46l.039-.221c.039-.103.111-.16.09-.293l-.064-.187v-.337c-.003-.2.017-.379-.078-.55-.38-.688-1.236-.929-1.975-.789-.18.034-.287.126-.442.207-.17.088-.139.166-.318.224-.081.026-.216.124-.215.224l.012.169-.03-.025"/><path d="M38.797-18.084c.017.072.007.127-.026.19l-.165.128c-.05.062-.099.276-.079.362-.169.058-.009.226-.015.35l-.045.161c-.01.119.017.266.068.37.097.198.268.413.435.544.19.148.365.572.608.631.177.042.384-.104.543-.142.18-.043.397.01.571-.053.222-.079.127-.337.288-.45.104-.074.287-.01.406-.051.2-.069.339-.263.376-.46l.039-.221c.039-.103.111-.16.09-.293l-.065-.187v-.337c-.003-.2.017-.379-.078-.55-.38-.688-1.236-.929-1.975-.789-.18.034-.287.126-.442.207-.17.088-.139.166-.318.224-.081.026-.216.124-.215.224l.012.169-.03-.025"/><path d="M31.137-18.084c.018.072.007.127-.026.19l-.165.128c-.05.062-.099.276-.079.362-.169.058-.009.226-.015.35l-.045.161c-.01.119.017.266.068.37.097.198.268.413.435.544.19.148.365.572.608.631.177.042.384-.104.543-.142.18-.043.397.01.571-.053.222-.079.127-.337.288-.45.104-.074.287-.01.406-.051.2-.069.339-.263.376-.46l.039-.221c.039-.103.111-.16.09-.293l-.064-.187v-.337c-.003-.2.017-.379-.078-.55-.38-.688-1.236-.929-1.975-.789-.18.034-.287.126-.442.207-.17.088-.139.166-.318.224-.081.026-.216.124-.215.224l.012.169-.03-.025"/><path d="M23.477-18.084c.017.072.007.127-.026.19l-.165.128c-.05.062-.099.276-.079.362-.169.058-.009.226-.015.35l-.045.161c-.01.119.017.266.068.37.097.198.268.413.435.544.19.148.365.572.608.631.177.042.384-.104.543-.142.18-.043.397.01.571-.053.222-.079.127-.337.288-.45.104-.074.287-.01.406-.051.2-.069.339-.263.376-.46l.039-.221c.038-.103.111-.16.09-.293l-.065-.187v-.337c-.003-.2.017-.379-.078-.55-.38-.688-1.236-.929-1.975-.789-.18.034-.287.126-.442.207-.17.088-.139.166-.318.224-.081.026-.216.124-.215.224l.012.169-.03-.025"/><path d="M15.816-18.084c.018.072.007.127-.026.19l-.165.128c-.05.062-.099.276-.079.362-.169.058-.009.226-.015.35l-.045.161c-.01.119.017.266.068.37.097.198.268.413.435.544.19.148.365.572.608.631.177.042.384-.104.543-.142.18-.043.397.01.571-.053.222-.079.128-.337.288-.45.104-.074.287-.01.406-.051.2-.069.339-.263.376-.46l.039-.221c.039-.103.111-.16.09-.293l-.064-.187v-.337c-.003-.2.017-.379-.078-.55-.38-.688-1.236-.929-1.975-.789-.18.034-.287.126-.442.207-.17.088-.139.166-.318.224-.081.026-.216.124-.215.224l.012.169-.03-.025"/><path d="M8.156-18.084c.018.072.007.127-.026.19l-.165.128c-.05.062-.099.276-.079.362-.169.058-.009.226-.015.35l-.045.161c-.01.119.017.266.068.37.097.198.268.413.435.544.19.148.365.572.608.631.177.042.384-.104.543-.142.18-.043.397.01.571-.053.222-.079.127-.337.288-.45.104-.074.287-.01.406-.051.2-.069.339-.263.376-.46l.039-.221c.038-.103.111-.16.09-.293l-.064-.187v-.337c-.003-.2.017-.379-.078-.55-.38-.688-1.236-.929-1.975-.789-.18.034-.287.126-.442.207-.17.088-.139.166-.318.224-.081.026-.216.124-.215.224l.012.169-.03-.025"/><path d="M.495-18.084c.018.072.007.127-.026.19l-.165.128c-.05.062-.099.276-.079.362-.169.058-.01.226-.015.35l-.045.161c-.01.119.017.266.068.37.097.198.268.413.435.544.19.148.365.572.608.631.177.042.384-.104.543-.142.18-.043.397.01.571-.053.222-.079.127-.337.288-.45.104-.074.287-.01.406-.051.2-.069.339-.263.376-.46l.039-.221c.039-.103.111-.16.09-.293l-.064-.187v-.337c-.003-.2.017-.379-.078-.55-.38-.688-1.236-.929-1.975-.789-.18.034-.287.126-.442.207-.17.088-.139.166-.318.224-.081.026-.216.124-.215.224l.013.169-.03-.025"/><path d="M69.439-10.431c.017.072.007.127-.026.191l-.165.128c-.05.062-.099.276-.079.362-.169.058-.01.227-.015.35l-.045.161c-.01.119.017.266.068.37.097.198.268.413.435.544.19.148.365.572.608.631.177.042.384-.104.543-.143.18-.043.397.01.571-.053.222-.079.127-.337.288-.45.104-.074.287-.01.406-.051.2-.069.339-.263.376-.46l.039-.221c.039-.103.111-.16.09-.293l-.064-.187.001-.337c-.003-.2.017-.379-.078-.55-.38-.688-1.236-.929-1.975-.789-.18.034-.287.126-.442.207-.17.088-.139.166-.318.224-.081.026-.216.124-.215.224l.012.169-.03-.025"/><path d="M61.778-10.431c.018.072.007.127-.026.191l-.165.128c-.05.062-.099.276-.079.362-.169.058-.009.227-.015.35l-.045.161c-.01.119.017.266.068.37.097.198.268.413.435.544.19.148.365.572.608.631.177.042.384-.104.543-.143.18-.043.397.01.571-.053.222-.079.127-.337.288-.45.104-.074.287-.01.406-.051.2-.069.339-.263.376-.46l.039-.221c.039-.103.111-.16.09-.293l-.064-.187v-.337c-.003-.2.017-.379-.078-.55-.38-.688-1.236-.929-1.975-.789-.18.034-.287.126-.442.207-.17.088-.139.166-.318.224-.081.026-.216.124-.215.224l.012.169-.03-.025"/><path d="M54.118-10.431c.018.072.007.127-.026.191l-.165.128c-.05.062-.099.276-.079.362-.169.058-.009.227-.015.35l-.045.161c-.01.119.017.266.068.37.097.198.268.413.435.544.19.148.365.572.608.631.177.042.384-.104.543-.143.18-.043.397.01.571-.053.222-.079.127-.337.288-.45.104-.074.287-.01.406-.051.2-.069.339-.263.376-.46l.039-.221c.038-.103.111-.16.09-.293l-.064-.187v-.337c-.003-.2.017-.379-.078-.55-.38-.688-1.236-.929-1.975-.789-.18.034-.287.126-.442.207-.17.088-.139.166-.318.224-.081.026-.216.124-.215.224l.012.169-.03-.025"/><path d="M46.458-10.431c.018.072.007.127-.026.191l-.165.128c-.05.062-.099.276-.079.362-.169.058-.009.227-.015.35l-.045.161c-.01.119.017.266.068.37.097.198.268.413.435.544.19.148.365.572.608.631.177.042.384-.104.543-.143.18-.043.397.01.571-.053.222-.079.127-.337.288-.45.104-.074.287-.01.406-.051.2-.069.339-.263.376-.46l.039-.221c.039-.103.111-.16.09-.293l-.064-.187v-.337c-.003-.2.017-.379-.078-.55-.38-.688-1.236-.929-1.975-.789-.18.034-.287.126-.442.207-.17.088-.139.166-.318.224-.081.026-.216.124-.215.224l.012.169-.03-.025"/><path d="M38.797-10.431c.017.072.007.127-.026.191l-.165.128c-.05.062-.099.276-.079.362-.169.058-.009.227-.015.35l-.045.161c-.01.119.017.266.068.37.097.198.268.413.435.544.19.148.365.572.608.631.177.042.384-.104.543-.143.18-.043.397.01.571-.053.222-.079.127-.337.288-.45.104-.074.287-.01.406-.051.2-.069.339-.263.376-.46l.039-.221c.039-.103.111-.16.09-.293l-.065-.187v-.337c-.003-.2.017-.379-.078-.55-.38-.688-1.236-.929-1.975-.789-.18.034-.287.126-.442.207-.17.088-.139.166-.318.224-.081.026-.216.124-.215.224l.012.169-.03-.025"/><path d="M31.137-10.431c.018.072.007.127-.026.191l-.165.128c-.05.062-.099.276-.079.362-.169.058-.009.227-.015.35l-.045.161c-.01.119.017.266.068.37.097.198.268.413.435.544.19.148.365.572.608.631.177.042.384-.104.543-.143.18-.043.397.01.571-.053.222-.079.127-.337.288-.45.104-.074.287-.01.406-.051.2-.069.339-.263.376-.46l.039-.221c.039-.103.111-.16.09-.293l-.064-.187v-.337c-.003-.2.017-.379-.078-.55-.38-.688-1.236-.929-1.975-.789-.18.034-.287.126-.442.207-.17.088-.139.166-.318.224-.081.026-.216.124-.215.224l.012.169-.03-.025"/><path d="M23.477-10.431c.017.072.007.127-.026.191l-.165.128c-.05.062-.099.276-.079.362-.169.058-.009.227-.015.35l-.045.161c-.01.119.017.266.068.37.097.198.268.413.435.544.19.148.365.572.608.631.177.042.384-.104.543-.143.18-.043.397.01.571-.053.222-.079.127-.337.288-.45.104-.074.287-.01.406-.051.2-.069.339-.263.376-.46l.039-.221c.038-.103.111-.16.09-.293l-.065-.187v-.337c-.003-.2.017-.379-.078-.55-.38-.688-1.236-.929-1.975-.789-.18.034-.287.126-.442.207-.17.088-.139.166-.318.224-.081.026-.216.124-.215.224l.012.169-.03-.025"/><path d="M15.816-10.431c.018.072.007.127-.026.191l-.165.128c-.05.062-.099.276-.079.362-.169.058-.009.227-.015.35l-.045.161c-.01.119.017.266.068.37.097.198.268.413.435.544.19.148.365.572.608.631.177.042.384-.104.543-.143.18-.043.397.01.571-.053.222-.079.128-.337.289-.45.104-.074.287-.01.406-.051.2-.069.339-.263.376-.46l.039-.221c.039-.103.111-.16.09-.293l-.064-.187v-.337c-.003-.2.017-.379-.078-.55-.38-.688-1.236-.929-1.975-.789-.18.034-.287.126-.442.207-.17.088-.139.166-.318.224-.081.026-.216.124-.215.224l.012.169-.03-.025"/><path d="M8.156-10.431c.018.072.007.127-.026.191l-.165.128c-.05.062-.099.276-.079.362-.169.058-.01.227-.015.35l-.045.161c-.01.119.017.266.068.37.097.198.268.413.435.544.19.148.365.572.608.631.177.042.384-.105.543-.143.18-.043.397.01.571-.053.222-.079.127-.337.288-.45.104-.074.287-.01.406-.051.2-.069.339-.263.376-.46l.039-.221c.038-.103.111-.16.09-.293l-.064-.187v-.337c-.003-.2.017-.379-.078-.55-.38-.688-1.236-.929-1.975-.789-.18.034-.287.126-.442.207-.17.088-.139.166-.318.224-.081.026-.216.124-.215.224l.012.169-.03-.025"/><path d="M.495-10.431c.018.072.007.127-.026.191l-.165.128c-.05.062-.099.276-.079.362-.169.058-.01.227-.015.35l-.045.161c-.01.119.017.266.068.37.097.198.268.413.435.544.19.148.365.572.608.631.178.042.384-.105.543-.143.181-.043.398.01.572-.053.222-.079.127-.337.288-.45.104-.074.287-.01.406-.051.2-.069.339-.263.376-.46l.039-.22c.039-.103.111-.16.09-.293l-.064-.187v-.337c-.003-.2.017-.379-.078-.55-.38-.688-1.236-.929-1.975-.789-.18.034-.287.126-.442.207-.17.088-.139.166-.318.224-.081.026-.216.124-.215.224l.012.169-.03-.025"/></g><g fill="#fff"><path d="M69.439-2.778c.017.072.008.127-.026.19l-.165.128c-.051.062-.099.276-.079.362-.169.058-.01.227-.015.35l-.045.161c-.01.119.017.266.068.37.097.198.268.413.435.544.19.148.365.572.608.631.177.042.384-.104.543-.143.18-.043.397.01.571-.053.222-.079.127-.337.288-.45.104-.074.287-.01.406-.051.2-.07.339-.263.376-.46l.039-.221c.038-.103.111-.16.09-.293l-.064-.187.001-.337c-.003-.2.017-.379-.078-.55-.38-.688-1.236-.929-1.975-.789-.18.034-.287.126-.442.207-.17.088-.139.166-.318.224-.081.026-.215.124-.215.224l.012.169-.03-.025"/><path d="M61.778-2.778c.018.072.007.127-.026.19l-.165.128c-.05.062-.099.276-.079.362-.169.058-.01.227-.015.35l-.045.161c-.01.119.017.266.068.37.097.198.268.413.435.544.19.148.365.572.608.631.178.042.384-.104.544-.143.18-.043.397.01.571-.053.222-.079.127-.337.288-.45.104-.074.287-.01.406-.051.2-.069.339-.263.376-.46l.039-.221c.039-.103.111-.16.09-.293l-.064-.187v-.337c-.003-.2.017-.379-.078-.55-.38-.688-1.236-.929-1.975-.789-.18.034-.287.126-.442.207-.17.088-.139.166-.318.224-.081.028-.216.125-.215.225l.012.169-.03-.025"/><path d="M54.118-2.778c.018.072.007.127-.026.19l-.165.128c-.05.062-.099.276-.079.362-.169.058-.01.227-.015.35l-.045.161c-.01.119.017.266.068.37.097.198.268.413.435.544.19.148.365.572.608.631.178.042.384-.104.543-.143.18-.043.397.01.571-.053.222-.079.127-.337.288-.45.104-.074.287-.01.406-.051.2-.069.339-.263.376-.46l.039-.221c.038-.103.111-.16.09-.293l-.064-.187v-.337c-.003-.2.017-.379-.078-.55-.38-.688-1.236-.929-1.975-.789-.18.034-.287.126-.442.207-.17.088-.139.166-.318.224-.08.028-.215.125-.214.225l.012.169-.03-.025"/><path d="M46.458-2.778c.018.072.007.127-.026.19l-.165.128c-.05.062-.099.276-.079.362-.169.058-.01.227-.015.35l-.045.161c-.01.119.017.266.068.37.097.198.268.413.435.544.19.148.365.572.608.631.177.042.384-.104.543-.143.18-.043.397.01.571-.053.222-.079.127-.337.288-.45.104-.074.287-.01.406-.051.2-.069.339-.263.376-.46l.039-.221c.039-.103.111-.16.09-.293l-.064-.187v-.337c-.003-.2.017-.379-.078-.55-.38-.688-1.236-.929-1.975-.789-.18.034-.287.126-.442.207-.17.088-.139.166-.318.224-.081.028-.216.125-.215.225l.012.169-.03-.025"/><path d="M38.797-2.778c.017.072.007.127-.026.19l-.165.128c-.05.062-.099.276-.079.362-.169.058-.01.227-.015.35l-.045.161c-.01.119.017.266.068.37.097.198.268.413.435.544.19.148.365.572.608.631.178.042.384-.104.544-.143.18-.043.397.01.571-.053.222-.079.127-.337.288-.45.104-.074.287-.01.406-.051.2-.069.339-.263.376-.46l.039-.221c.039-.103.111-.16.09-.293l-.065-.187v-.337c-.003-.2.017-.379-.078-.55-.38-.688-1.236-.929-1.975-.789-.18.034-.287.126-.442.207-.17.088-.139.166-.318.224-.08.028-.215.125-.214.225l.012.169-.03-.025"/><path d="M31.137-2.778c.018.072.007.127-.026.19l-.165.128c-.05.062-.099.276-.079.362-.169.058-.01.227-.015.35l-.045.161c-.01.119.017.266.068.37.097.198.268.413.435.544.19.148.365.572.608.631.177.042.384-.104.543-.143.18-.043.397.01.571-.053.222-.079.127-.337.288-.45.104-.074.287-.01.406-.051.2-.069.339-.263.376-.46l.039-.221c.039-.103.111-.16.09-.293l-.064-.187v-.337c-.003-.2.017-.379-.078-.55-.38-.688-1.236-.929-1.975-.789-.18.034-.287.126-.442.207-.17.088-.139.166-.318.224-.081.028-.215.125-.214.225l.012.169-.03-.025"/><path d="M23.477-2.778c.017.072.007.127-.026.19l-.165.128c-.05.062-.099.276-.079.362-.169.058-.01.227-.015.35l-.045.161c-.01.119.017.266.068.37.097.198.268.413.435.544.19.148.365.572.608.631.177.042.384-.104.543-.143.18-.043.397.01.571-.053.222-.079.127-.337.288-.45.104-.074.287-.01.406-.051.2-.069.339-.263.376-.46l.039-.221c.038-.103.111-.16.09-.293l-.065-.187v-.337c-.003-.2.017-.379-.078-.55-.38-.688-1.236-.929-1.975-.789-.18.034-.287.126-.442.207-.17.088-.139.166-.318.224-.081.026-.216.124-.215.224l.012.169-.03-.025"/><path d="M15.816-2.778c.018.072.007.127-.026.19l-.165.128c-.05.062-.099.276-.079.362-.169.058-.01.227-.015.35l-.045.161c-.01.119.017.266.068.37.097.198.268.413.435.544.19.148.365.572.608.631.177.042.384-.104.543-.143.18-.043.397.01.571-.053.222-.079.128-.337.288-.45.104-.074.287-.01.406-.051.2-.069.339-.263.376-.46l.039-.221c.039-.103.111-.16.09-.293l-.064-.187v-.337c-.003-.2.017-.379-.078-.55-.38-.688-1.236-.929-1.975-.789-.18.034-.287.126-.442.207-.17.088-.139.166-.318.224-.081.026-.216.124-.215.224l.012.169-.03-.024"/><path d="M8.156-2.778c.018.072.007.127-.026.19l-.165.128c-.05.062-.099.276-.079.362-.169.058-.01.227-.015.35l-.045.161c-.01.119.017.266.068.37.097.198.268.413.435.544.19.148.365.572.608.631.177.042.384-.104.543-.143.18-.043.397.01.571-.053.222-.079.127-.337.288-.45.104-.074.287-.01.406-.051.2-.069.339-.263.376-.46l.039-.221c.038-.103.111-.16.09-.293l-.064-.187v-.337c-.003-.2.017-.379-.078-.55-.38-.688-1.236-.929-1.975-.789-.179.036-.286.128-.441.209-.17.088-.139.166-.318.224-.082.026-.216.123-.215.223l.011.169-.03-.025"/><path d="M.495-2.778c.018.072.008.127-.026.19l-.165.128c-.051.063-.099.276-.079.362-.169.058-.01.227-.015.35l-.045.161c-.01.119.017.266.068.37.097.198.268.413.435.544.19.148.365.572.608.631.178.042.384-.104.543-.143.181-.043.398.01.572-.052.222-.079.127-.337.288-.45.104-.074.287-.01.406-.051.2-.07.339-.263.376-.46l.039-.221c.038-.103.111-.16.09-.293l-.064-.187v-.337c-.003-.2.017-.379-.078-.55-.38-.688-1.236-.929-1.975-.789-.18.035-.286.127-.442.208-.17.088-.139.166-.318.224-.081.026-.215.123-.215.223l.012.169-.031-.025"/></g></pattern><g fill="#707B7D"><path d="M16.445 9.771v1.931h.115c3.468-2.089 7.049-2.255 9.19-2.255 5.777 0 7.743 1.649 8.495 2.255 1.326-.768 4.216-2.255 9.127-2.255 9.825 0 9.825 3.877 9.825 5.445v9.134h-7.918v-8.139c0-1.683 0-3.552-4.219-3.552-2.079 0-4.218.633-4.968 1.567-.693.796-.983 1.512-.983 3.273v6.852h-7.916v-7.815c0-2.418.055-3.877-4.102-3.877-2.082 0-4.219.55-5.028 1.374-.634.631-1.043 1.291-1.043 3.387v6.929h-7.911v-14.254h7.336zM72.285 12.928h-5.744v5.708c0 2.018 0 2.678 2.35 2.678 1.112 0 2.098-.13 3.148-.33l.246-.027.742 2.899c-2.776.517-5.807.572-6.67.572-2.592 0-5.931-.385-7.164-1.447-1.05-.873-1.174-1.722-1.174-3.882v-6.17h-3.891v-2.981h3.891v-2.816l8.522-2.211v5.027h5.744v2.98zM5.235 32.083c-3.149-4.752-5.235-10.395-5.235-16.076 0-6.702 2.637-12.169 5.301-16.007h3.184c-2.362 5.234-3.969 9.678-3.969 16.146 0 7.419 2.631 13.138 3.83 15.728.033.039.105.174.105.209h-3.216zM76.33.071c3.146 4.751 5.233 10.399 5.233 16.075 0 6.702-2.633 12.17-5.3 16.008h-3.183c2.361-5.241 3.971-9.684 3.971-16.147 0-7.424-2.635-13.132-3.834-15.732-.033-.034-.102-.172-.102-.204h3.215z"/></g></svg>